<?xml version="1.0" encoding="utf-8"?>
<!-- Svg Vector Icons : http://www.onlinewebfonts.com/icon -->
<!DOCTYPE svg PUBLIC "-//W3C//DTD SVG 1.1//EN" "http://www.w3.org/Graphics/SVG/1.1/DTD/svg11.dtd">
<svg version="1.1" xmlns="http://www.w3.org/2000/svg" xmlns:xlink="http://www.w3.org/1999/xlink" x="0px" y="0px" viewBox="0 0 1000 1000" enable-background="new 0 0 1000 1000" xml:space="preserve">
<metadata> Svg Vector Icons : http://www.onlinewebfonts.com/icon </metadata>
<g><g transform="translate(0.000000,380.000000) scale(0.100000,-0.100000)"><path d="M519,2406.6c-178.2-49.8-356.5-237.6-402.5-419.7c-13.4-59.4-19.2-939.1-15.3-2939.8l5.7-2855.5l47.9-93.9c61.3-118.8,161-218.5,279.8-279.8c84.3-42.2,120.7-47.9,364.1-53.7l270.2-7.7l11.5-161c11.5-189.7,57.5-279.8,189.7-366l80.5-53.7h414h414l80.5,53.7c132.2,86.3,178.2,176.3,189.7,368l11.5,162.9h2543.1h2543.1l11.5-162.9c11.5-191.7,57.5-281.7,189.7-368l80.5-53.7h413.9h414l80.5,53.7c132.2,86.3,178.2,176.3,189.7,366l11.5,161l270.2,7.7c243.4,5.8,279.8,11.5,364.1,53.7c118.8,61.3,218.5,161,279.8,279.8l47.9,93.9V-905v2903.4l-47.9,93.9c-61.3,118.8-161,218.5-279.8,279.8l-93.9,47.9l-4446.2,3.8C2130.7,2425.8,563,2420,519,2406.6z M9424.7,2008c95.8-63.2,92,69,92-2913c0-3018.4,5.8-2859.4-101.6-2914.9c-70.9-38.3-8750.5-40.2-8821.5-1.9c-109.2,59.4-103.5-122.7-109.2,2830.6c-3.8,1496.8,0,2765.4,5.7,2821c13.4,107.3,72.8,187.8,149.5,203.1c23,3.8,1998.9,7.7,4392.5,5.8C8801.9,2036.7,9388.3,2032.9,9424.7,2008z M2052.1-4335.5v-95.8h-287.5h-287.5v95.8v95.8h287.5h287.5V-4335.5z M8529.7-4335.5v-95.8h-287.5h-287.5v95.8v95.8h287.5h287.5V-4335.5z"/><path d="M1074.7-905v-2357.2h3440h3440V-905v2357.2h-3440h-3440V-905z M7552.3-905v-1954.8H4514.8H1477.2V-905v1954.8h3037.6h3037.6V-905z"/><path d="M3361.1,51.3c-308.5-47.9-766.6-191.6-1069.4-333.5c-187.8-90.1-205.1-107.3-214.6-214.6c-7.7-101.6,28.7-162.9,115-195.5c61.3-24.9,95.8-15.3,358.4,93.9c373.7,157.2,661.2,235.7,952.5,266.4c302.8,32.6,504-9.6,954.4-197.4c318.1-132.2,490.6-168.7,776.2-168.7c272.1,0,540.4,44.1,898.8,147.6c279.8,82.4,668.8,224.2,737.8,268.3c138,90.1,103.5,306.6-53.7,346.9c-65.1,15.3-78.6,11.5-431.2-116.9c-475.3-172.5-862.4-258.7-1161.4-258.7c-239.6,1.9-345,28.7-741.7,195.5c-322,134.2-479.1,170.6-762.7,178.2C3587.2,66.6,3426.2,62.8,3361.1,51.3z"/><path d="M3447.3-1115.9c-170.6-19.2-523.2-101.6-705.3-162.9c-249.1-86.2-567.3-230-619-279.8c-107.3-107.3-46-293.2,101.6-316.2c53.7-9.6,113.1,7.7,277.9,78.6c256.8,109.2,546.2,207,737.8,249.1c230,49.8,540.4,59.4,705.3,21.1c145.6-32.6,176.3-44.1,538.5-191.7c320-130.3,442.7-155.2,758.9-155.2c392.9,1.9,781.9,88.2,1381.8,308.5c176.3,65.2,249.1,103.5,285.6,145.7c80.5,95.8,59.4,216.6-49.8,281.7c-70.9,44.1-115,34.5-448.5-84.3c-440.8-157.2-726.3-230-1027.2-258.7c-302.8-28.8-494.5,13.4-965.9,210.8C4089.3-1131.2,3767.3-1081.4,3447.3-1115.9z"/><path d="M8577.6,823.6C8318.9,699,8261.4,392.4,8460.8,195c193.6-193.6,513.6-134.2,626.7,116.9c74.7,164.8,13.4,377.5-139.9,479.1C8842.1,860,8685,875.3,8577.6,823.6z"/><path d="M8589.1-542.8c-92-36.4-161-103.5-205-197.4c-57.5-124.6-57.5-207,0-331.6c65.1-139.9,166.7-203.1,335.4-212.7c153.3-5.8,247.2,38.3,337.3,164.8c49.8,72.8,57.5,99.7,57.5,214.6c0,115-7.7,141.8-57.5,214.6c-80.5,113.1-184,168.6-316.2,166.7C8683.1-523.7,8614.1-533.3,8589.1-542.8z"/><path d="M8604.5-1913.1c-208.9-63.2-322-316.2-230-515.5c136.1-302.8,553.8-316.2,701.4-23c57.5,115,61.3,222.3,11.5,329.6c-44.1,97.7-151.4,193.6-245.3,218.5C8750.1-1876.7,8713.7-1878.6,8604.5-1913.1z"/></g></g>
</svg>